HIERARCHY
ROOT Hips
{
	OFFSET 0.000000 89.005402 0.000000
	CHANNELS 6 Xposition Yposition Zposition Xrotation Yrotation Zrotation
	JOINT Spine
	{
		OFFSET 0.116900 10.681000 0.373400
		CHANNELS 3 Xrotation Yrotation Zrotation
		JOINT Spine1
		{
			OFFSET 0.000000 13.840401 0.053500
			CHANNELS 3 Xrotation Yrotation Zrotation
			JOINT Spine2
			{
				OFFSET 0.000000 14.712700 -0.366200
				CHANNELS 3 Xrotation Yrotation Zrotation
				JOINT Neck
				{
					OFFSET 0.000000 35.415497 -3.314200
					CHANNELS 3 Xrotation Yrotation Zrotation
					JOINT Head
					{
						OFFSET 0.000000 16.899200 1.218300
						CHANNELS 3 Xrotation Yrotation Zrotation
						JOINT HeadTop_End
						{
							OFFSET 0.000000 22.206207 2.192500
							CHANNELS 3 Xrotation Yrotation Zrotation
							End Site
							{
								OFFSET 0.000000 22.314178 0.000000
							}
						}
					}
				}
				JOINT LeftShoulder
				{
					OFFSET 12.896400 26.716293 -4.548400
					CHANNELS 3 Xrotation Yrotation Zrotation
					JOINT LeftArm
					{
						OFFSET 19.027000 -4.857010 -1.718400
						CHANNELS 3 Xrotation Yrotation Zrotation
						JOINT LeftForeArm
						{
							OFFSET 24.179897 0.000000 0.000000
							CHANNELS 3 Xrotation Yrotation Zrotation
							JOINT LeftHand
							{
								OFFSET 27.156403 0.000000 0.000000
								CHANNELS 3 Xrotation Yrotation Zrotation
								JOINT LeftHandIndex1
								{
									OFFSET 16.441200 0.000000 0.000000
									CHANNELS 3 Xrotation Yrotation Zrotation
									JOINT LeftHandIndex2
									{
										OFFSET 4.821899 0.000000 0.000000
										CHANNELS 3 Xrotation Yrotation Zrotation
										JOINT LeftHandIndex3
										{
											OFFSET 6.386497 0.000000 0.000000
											CHANNELS 3 Xrotation Yrotation Zrotation
											JOINT LeftHandIndex4
											{
												OFFSET 5.188988 0.000000 0.000000
												CHANNELS 3 Xrotation Yrotation Zrotation
												End Site
												{
													OFFSET -0.178703 5.185913 0.000177
												}
											}
										}
									}
								}
								JOINT LeftHandThumb1
								{
									OFFSET 6.534897 -5.032593 5.900300
									CHANNELS 3 Xrotation Yrotation Zrotation
									JOINT LeftHandThumb2
									{
										OFFSET 3.818176 -2.204422 2.204423
										CHANNELS 3 Xrotation Yrotation Zrotation
										JOINT LeftHandThumb3
										{
											OFFSET 3.252098 -1.877594 1.877601
											CHANNELS 3 Xrotation Yrotation Zrotation
											JOINT LeftHandThumb4
											{
												OFFSET 5.251778 -3.032120 3.032117
												CHANNELS 3 Xrotation Yrotation Zrotation
												End Site
												{
													OFFSET 0.000023 6.780014 0.000000
												}
											}
										}
									}
								}
							}
						}
					}
				}
				JOINT RightShoulder
				{
					OFFSET -12.896300 26.716293 -4.548400
					CHANNELS 3 Xrotation Yrotation Zrotation
					JOINT RightArm
					{
						OFFSET -19.027000 -4.857010 -1.718400
						CHANNELS 3 Xrotation Yrotation Zrotation
						JOINT RightForeArm
						{
							OFFSET -24.179897 0.000000 0.000000
							CHANNELS 3 Xrotation Yrotation Zrotation
							JOINT RightHand
							{
								OFFSET -27.156403 0.000000 0.000000
								CHANNELS 3 Xrotation Yrotation Zrotation
								JOINT RightHandThumb1
								{
									OFFSET -6.591202 -4.852203 5.988100
									CHANNELS 3 Xrotation Yrotation Zrotation
									JOINT RightHandThumb2
									{
										OFFSET -3.818176 -2.204422 2.204423
										CHANNELS 3 Xrotation Yrotation Zrotation
										JOINT RightHandThumb3
										{
											OFFSET -3.252098 -1.877594 1.877601
											CHANNELS 3 Xrotation Yrotation Zrotation
											JOINT RightHandThumb4
											{
												OFFSET -5.251778 -3.032120 3.032117
												CHANNELS 3 Xrotation Yrotation Zrotation
												End Site
												{
													OFFSET -0.000023 6.780014 0.000000
												}
											}
										}
									}
								}
								JOINT RightHandIndex1
								{
									OFFSET -16.029404 0.000000 0.000000
									CHANNELS 3 Xrotation Yrotation Zrotation
									JOINT RightHandIndex2
									{
										OFFSET -5.213303 0.000000 0.000000
										CHANNELS 3 Xrotation Yrotation Zrotation
										JOINT RightHandIndex3
										{
											OFFSET -6.386528 0.000000 0.000000
											CHANNELS 3 Xrotation Yrotation Zrotation
											JOINT RightHandIndex4
											{
												OFFSET -5.189026 0.000000 0.000000
												CHANNELS 3 Xrotation Yrotation Zrotation
												End Site
												{
													OFFSET 0.236702 5.183624 0.001972
												}
											}
										}
									}
								}
							}
						}
					}
				}
			}
		}
	}
	JOINT LeftUpLeg
	{
		OFFSET 14.073000 -7.904099 -1.463000
		CHANNELS 3 Xrotation Yrotation Zrotation
		JOINT LeftLeg
		{
			OFFSET -0.109806 -34.073280 4.093200
			CHANNELS 3 Xrotation Yrotation Zrotation
			JOINT LeftFoot
			{
				OFFSET 0.109806 -29.899420 -6.319000
				CHANNELS 3 Xrotation Yrotation Zrotation
				JOINT LeftToeBase
				{
					OFFSET 1.551100 -14.988700 20.535801
					CHANNELS 3 Xrotation Yrotation Zrotation
					JOINT LeftToe_End
					{
						OFFSET 0.221200 0.570800 13.248301
						CHANNELS 3 Xrotation Yrotation Zrotation
						End Site
						{
							OFFSET 0.000000 13.262435 0.000000
						}
					}
				}
			}
		}
	}
	JOINT RightUpLeg
	{
		OFFSET -13.839300 -7.904099 -1.463000
		CHANNELS 3 Xrotation Yrotation Zrotation
		JOINT RightLeg
		{
			OFFSET 0.109694 -34.073219 4.093300
			CHANNELS 3 Xrotation Yrotation Zrotation
			JOINT RightFoot
			{
				OFFSET -0.109694 -29.899384 -6.319200
				CHANNELS 3 Xrotation Yrotation Zrotation
				JOINT RightToeBase
				{
					OFFSET -1.551100 -14.988700 20.535801
					CHANNELS 3 Xrotation Yrotation Zrotation
					JOINT RightToe_End
					{
						OFFSET -0.221200 0.570900 13.248299
						CHANNELS 3 Xrotation Yrotation Zrotation
						End Site
						{
							OFFSET 0.000000 13.262440 0.000000
						}
					}
				}
			}
		}
	}
}
MOTION
Frames: 4
Frame Time: 0.033333
7.615339 83.639076 1.685548 -0.893619 -2.386306 -13.153495 -1.195531 -0.164186 -1.443461 -2.230383 -1.457725 5.406205 -2.251321 -1.419614 5.408345 3.168612 1.445033 2.379156 11.101444 9.685962 3.834712 -0.000001 0.000000 0.000000 -0.286324 3.451893 4.799318 -8.389281 -18.393341 -0.350455 -0.000002 -39.447454 0.000004 -0.642022 -16.943884 17.912943 0.000001 -0.000003 -0.000003 -0.000001 0.000002 0.000004 -0.000001 -0.000000 -0.000002 -0.000000 -0.000000 0.000002 -1.540038 3.690183 6.142356 3.939052 7.948702 0.746810 -0.579473 1.575006 2.538716 -0.000000 -0.000001 -0.000000 0.339347 -10.682810 7.655386 -17.813116 -0.545933 27.608381 -0.000001 29.269454 -0.000010 4.570749 6.731216 -25.790221 -1.849245 -3.581798 -6.586134 4.637184 -8.634136 -0.225401 -1.273755 0.137309 -2.094874 0.000000 -0.000000 0.000000 0.000004 -0.000003 0.000002 -0.000006 0.000005 0.000002 0.000007 -0.000007 -0.000003 0.000003 -0.000001 -0.000001 -10.631235 16.260660 21.614460 33.730493 7.814789 11.174773 -24.826677 6.058552 -19.220036 -0.000023 0.000003 -0.000003 -0.000000 -0.000000 -0.000000 -12.227499 -8.755548 -13.029399 26.087554 0.364478 -2.021360 14.202682 0.872983 21.498596 -28.155657 -0.000002 0.000001 0.000000 0.000001 0.000000 
7.415664 83.570351 1.505448 -0.811914 -2.259192 -13.421136 -0.934057 -0.125190 -1.503561 -1.710290 -1.366456 5.614220 -1.730860 -1.334490 5.616033 3.253587 1.446606 2.415791 9.588402 9.756527 3.319108 0.000000 -0.000000 -0.000000 -0.254262 2.804411 6.096468 0.507714 -19.665581 7.962590 0.000002 -32.989172 0.000002 -22.607364 -6.356057 7.539492 -0.000000 -0.000003 -0.000005 0.000001 0.000001 0.000003 0.000002 -0.000002 0.000003 0.000000 -0.000003 0.000001 -1.540039 3.690183 6.142352 3.939053 7.948704 0.746813 -0.579470 1.575000 2.538712 0.000001 -0.000002 0.000001 0.265272 -9.857821 6.892092 -17.002050 0.302346 27.690601 -0.000001 27.006863 0.000000 0.097509 5.849246 -25.572500 -1.849249 -3.581794 -6.586138 4.637187 -8.634135 -0.225402 -1.273751 0.137309 -2.094875 0.000001 0.000000 0.000000 -0.000000 -0.000000 0.000000 -0.000005 0.000003 0.000003 0.000001 -0.000002 -0.000003 0.000000 0.000000 0.000001 -11.061534 15.441249 22.086001 34.252873 8.098150 11.134838 -24.781209 6.123644 -19.513432 -0.000007 -0.000002 -0.000000 -0.000000 0.000000 -0.000000 -12.293441 -9.916034 -12.988542 25.866977 0.728132 -1.824628 14.386544 0.925586 21.664810 -28.040298 -0.000013 -0.000001 0.000000 0.000002 -0.000000 
7.148642 83.648361 1.276299 -0.610935 -1.169096 -13.368501 -0.441654 -0.305022 -1.333554 -0.701054 -1.656056 6.214020 -0.726870 -1.638141 6.215737 3.143743 1.501094 2.057926 6.420520 9.769160 1.698567 0.000000 -0.000000 -0.000000 -0.239209 2.326396 7.274338 13.320426 -15.648582 19.782157 -0.000003 -26.963942 -0.000007 -44.109194 -0.740498 -3.365621 0.000001 -0.000007 -0.000004 -0.000002 0.000003 0.000004 -0.000001 0.000001 0.000003 -0.000000 -0.000001 0.000001 -1.540037 3.690183 6.142350 3.939052 7.948703 0.746809 -0.579469 1.575006 2.538710 0.000001 0.000001 -0.000000 0.128822 -8.156338 5.137321 -15.914966 0.197121 26.471587 -0.000001 26.931740 0.000006 -6.404050 4.630529 -23.764938 -1.849255 -3.581796 -6.586138 4.637184 -8.634136 -0.225402 -1.273748 0.137309 -2.094874 0.000000 0.000000 -0.000000 -0.000000 0.000000 0.000000 -0.000005 0.000004 0.000003 0.000002 -0.000004 -0.000003 0.000003 0.000001 0.000000 -11.638015 14.526060 22.156775 34.238109 7.784437 11.231982 -24.182879 6.068360 -19.541094 -0.000044 -0.000002 -0.000000 -0.000000 0.000000 -0.000000 -12.135926 -10.592517 -13.490873 25.844270 0.012502 -1.203272 15.106780 1.031674 22.067361 -28.445031 0.000003 0.000001 0.000000 0.000001 0.000000 
6.870644 83.981293 1.050998 -0.182922 0.782626 -12.775358 0.249536 -0.631670 -0.923463 0.718858 -2.128933 7.041920 0.686350 -2.131691 7.043904 2.715036 1.542473 1.382422 2.049935 9.555564 -0.396952 -0.000000 0.000001 0.000000 -0.227779 1.814037 8.705504 23.123404 -7.330722 25.824780 -0.000025 -30.377181 -0.000014 -53.675561 1.810328 -13.548610 0.000002 -0.000003 -0.000004 0.000002 -0.000001 0.000004 -0.000001 0.000001 0.000003 -0.000001 -0.000000 -0.000000 -1.540039 3.690183 6.142354 3.939051 7.948700 0.746811 -0.579474 1.575001 2.538712 -0.000001 -0.000001 0.000000 0.024060 -5.533363 2.482200 -11.569404 -1.425610 24.162643 -0.000006 29.759203 0.000008 -13.990669 3.786284 -20.129399 -1.849251 -3.581794 -6.586139 4.637184 -8.634135 -0.225402 -1.273751 0.137309 -2.094873 -0.000001 -0.000000 0.000000 0.000001 0.000000 -0.000001 -0.000001 0.000004 0.000003 -0.000001 -0.000005 -0.000002 0.000004 -0.000002 -0.000001 -12.178999 13.897893 21.293405 33.062466 7.214794 11.552103 -22.722371 5.838901 -19.277804 -0.086803 -0.000002 -0.000001 0.000000 -0.000002 -0.000000 -12.288511 -10.603231 -14.508304 26.582543 -2.062399 -0.537308 16.297846 1.139381 22.094562 -29.576495 -0.000008 -0.000001 -0.000000 -0.000001 -0.000000 
